<svg xmlns="http://www.w3.org/2000/svg" height="659pt" version="1.1" viewBox="0 0 659.39701 659" width="659pt">
<g id="surface1">
<path d="M 599.058594 209.871094 C 569.105469 209.871094 569.105469 179.917969 539.152344 179.917969 L 509.199219 179.917969 C 492.65625 179.921875 479.242188 166.515625 479.234375 149.976562 C 479.230469 133.433594 492.632812 120.015625 509.175781 120.011719 C 509.183594 120.011719 509.191406 120.011719 509.199219 120.011719 L 599.058594 120.011719 C 632.144531 120.011719 658.964844 93.191406 658.964844 60.105469 C 658.964844 27.019531 632.144531 0.199219 599.058594 0.199219 L 479.246094 0.199219 C 449.292969 0.199219 449.292969 30.152344 419.339844 30.152344 L 389.386719 30.152344 C 372.847656 30.152344 359.4375 43.558594 359.433594 60.101562 C 359.433594 60.101562 359.433594 60.101562 359.433594 60.105469 C 359.433594 76.644531 346.023438 90.058594 329.484375 90.058594 C 312.941406 90.058594 299.53125 103.464844 299.53125 120.007812 C 299.53125 120.007812 299.53125 120.007812 299.53125 120.011719 C 299.53125 136.550781 286.117188 149.964844 269.578125 149.964844 L 209.671875 149.964844 C 193.128906 149.953125 179.710938 163.355469 179.699219 179.898438 C 179.691406 196.441406 193.089844 209.859375 209.632812 209.871094 C 209.648438 209.871094 209.660156 209.871094 209.671875 209.871094 L 239.625 209.871094 C 256.167969 209.871094 269.578125 223.277344 269.578125 239.820312 C 269.578125 256.363281 282.988281 269.773438 299.53125 269.773438 L 479.25 269.773438 C 495.789062 269.773438 509.203125 283.183594 509.203125 299.726562 C 509.203125 316.269531 522.613281 329.679688 539.152344 329.679688 L 599.058594 329.679688 C 632.144531 329.699219 658.980469 302.894531 659 269.808594 C 659.019531 236.722656 632.214844 209.886719 599.128906 209.871094 C 599.105469 209.871094 599.082031 209.871094 599.058594 209.871094 Z M 599.058594 209.871094 " style=" stroke:none;fill-rule:nonzero;fill:rgb(18.823529%,74.901961%,0%);fill-opacity:1;" />
<path d="M 149.765625 149.964844 L 179.71875 149.964844 C 212.804688 149.964844 239.625 176.785156 239.625 209.871094 L 239.625 599.257812 C 239.625 632.34375 212.804688 659.164062 179.71875 659.164062 L 149.765625 659.164062 C 116.679688 659.164062 89.859375 632.34375 89.859375 599.257812 L 89.859375 209.871094 C 89.859375 176.785156 116.679688 149.964844 149.765625 149.964844 Z M 149.765625 149.964844 " style=" stroke:none;fill-rule:nonzero;fill:rgb(89.411765%,85.882353%,100%);fill-opacity:1;" />
<path d="M 149.765625 149.964844 L 209.671875 149.964844 C 226.214844 149.964844 239.625 163.375 239.625 179.917969 C 239.625 196.460938 226.214844 209.871094 209.671875 209.871094 L 149.765625 209.871094 C 133.222656 209.871094 119.8125 196.460938 119.8125 179.917969 C 119.8125 163.375 133.222656 149.964844 149.765625 149.964844 Z M 149.765625 149.964844 " style=" stroke:none;fill-rule:nonzero;fill:rgb(67.45098%,57.647059%,100%);fill-opacity:1;" />
<path d="M 209.671875 209.871094 C 226.214844 209.871094 239.625 223.277344 239.625 239.820312 L 239.625 419.539062 C 239.625 436.082031 226.214844 449.492188 209.671875 449.492188 C 193.128906 449.492188 179.71875 436.082031 179.71875 419.539062 L 179.71875 239.820312 C 179.71875 223.28125 193.128906 209.871094 209.671875 209.871094 Z M 209.671875 209.871094 " style=" stroke:none;fill-rule:nonzero;fill:rgb(81.960784%,76.078431%,100%);fill-opacity:1;" />
<path d="M 75.9375 389.585938 L 329.484375 389.585938 L 329.484375 479.445312 L 75.9375 479.445312 Z M 75.9375 389.585938 " style=" stroke:none;fill-rule:nonzero;fill:rgb(92.54902%,34.901961%,3.921569%);fill-opacity:1;" />
<path d="M 59.90625 479.445312 L 299.53125 479.445312 C 316.074219 479.445312 329.484375 492.855469 329.484375 509.398438 C 329.484375 525.941406 316.074219 539.351562 299.53125 539.351562 L 59.90625 539.351562 C 43.363281 539.351562 29.953125 525.941406 29.953125 509.398438 C 29.953125 492.855469 43.363281 479.445312 59.90625 479.445312 Z M 59.90625 479.445312 " style=" stroke:none;fill-rule:nonzero;fill:rgb(100%,61.176471%,36.862745%);fill-opacity:1;" />
<path d="M 605.046875 311.707031 L 525.175781 251.804688 C 514.808594 244.027344 502.195312 239.820312 489.230469 239.820312 L 329.484375 239.820312 L 329.484375 389.585938 L 29.953125 389.585938 L 29.953125 599.257812 C 29.953125 632.34375 56.773438 659.164062 89.859375 659.164062 L 569.105469 659.164062 C 602.191406 659.164062 629.011719 632.34375 629.011719 599.257812 L 629.011719 359.632812 C 629.011719 340.777344 620.132812 323.019531 605.046875 311.707031 Z M 605.046875 311.707031 " style=" stroke:none;fill-rule:nonzero;fill:rgb(100%,61.176471%,36.862745%);fill-opacity:1;" />
<path d="M 329.484375 419.539062 L 104.835938 419.539062 C 96.566406 419.539062 89.859375 412.835938 89.859375 404.5625 C 89.859375 396.292969 96.566406 389.585938 104.835938 389.585938 L 329.484375 389.585938 Z M 329.484375 419.539062 " style=" stroke:none;fill-rule:nonzero;fill:rgb(82.745098%,25.098039%,0%);fill-opacity:1;" />
<path d="M 605.050781 311.707031 L 525.175781 251.804688 C 514.804688 244.027344 502.195312 239.820312 489.230469 239.824219 L 374.414062 239.824219 C 384.132812 239.820312 393.59375 242.976562 401.371094 248.808594 L 485.238281 311.707031 C 500.324219 323.023438 509.199219 340.777344 509.199219 359.636719 L 509.199219 599.257812 C 509.199219 632.34375 482.378906 659.164062 449.292969 659.164062 L 569.105469 659.164062 C 602.191406 659.164062 629.011719 632.34375 629.011719 599.257812 L 629.011719 359.632812 C 629.011719 340.777344 620.132812 323.023438 605.050781 311.707031 Z M 605.050781 311.707031 " style=" stroke:none;fill-rule:nonzero;fill:rgb(100%,50.588235%,19.607843%);fill-opacity:1;" />
<path d="M 539.152344 329.679688 L 599.058594 329.679688 C 615.601562 329.679688 629.011719 343.089844 629.011719 359.632812 C 629.011719 376.175781 615.601562 389.585938 599.058594 389.585938 L 539.152344 389.585938 C 522.609375 389.585938 509.199219 376.175781 509.199219 359.632812 C 509.199219 343.09375 522.609375 329.679688 539.152344 329.679688 Z M 539.152344 329.679688 " style=" stroke:none;fill-rule:nonzero;fill:rgb(100%,41.176471%,4.313725%);fill-opacity:1;" />
<path d="M 299.53125 239.820312 C 299.53125 256.363281 312.941406 269.773438 329.484375 269.773438 L 349.453125 269.773438 C 355.933594 269.773438 362.238281 271.875 367.421875 275.765625 L 471.261719 353.644531 C 476.445312 357.53125 482.753906 359.632812 489.234375 359.632812 L 629.015625 359.632812 C 645.558594 359.632812 658.96875 346.222656 658.96875 329.679688 L 658.96875 314.703125 C 658.96875 305.277344 654.527344 296.398438 646.984375 290.742188 L 547.144531 215.859375 C 541.957031 211.96875 535.652344 209.867188 529.171875 209.867188 L 329.484375 209.867188 C 312.941406 209.871094 299.53125 223.28125 299.53125 239.820312 Z M 299.53125 239.820312 " style=" stroke:none;fill-rule:nonzero;fill:rgb(82.745098%,25.098039%,0%);fill-opacity:1;" />
<path d="M 361.003906 278.421875 C 344.460938 278.410156 331.042969 291.8125 331.03125 308.355469 C 331.023438 317.792969 335.464844 326.679688 343.011719 332.339844 L 435.316406 401.570312 C 446.101562 409.636719 458.558594 415.191406 471.765625 417.828125 C 487.992188 421.035156 503.75 410.480469 506.960938 394.253906 C 510.167969 378.035156 499.625 362.285156 483.410156 359.0625 L 483.40625 359.0625 L 483.359375 359.054688 L 483.351562 359.050781 L 483.257812 359.03125 L 483.210938 359.023438 L 483.195312 359.019531 L 483.0625 358.992188 L 483.039062 358.988281 L 483 358.980469 L 482.984375 358.976562 L 482.914062 358.960938 L 482.886719 358.953125 L 482.851562 358.945312 L 482.820312 358.9375 L 482.765625 358.925781 L 482.738281 358.921875 L 482.703125 358.914062 L 482.671875 358.90625 L 482.628906 358.894531 L 482.585938 358.886719 L 482.492188 358.863281 L 482.4375 358.851562 L 482.40625 358.84375 L 482.371094 358.835938 L 482.339844 358.828125 L 482.304688 358.820312 L 482.257812 358.808594 L 482.222656 358.800781 L 482.195312 358.792969 L 482.152344 358.785156 L 482.121094 358.777344 L 482.070312 358.765625 L 482.042969 358.757812 L 482.003906 358.746094 L 481.980469 358.742188 L 481.921875 358.726562 L 481.902344 358.722656 L 481.855469 358.710938 L 481.832031 358.707031 L 481.773438 358.691406 L 481.761719 358.6875 L 481.707031 358.671875 L 481.6875 358.667969 L 481.628906 358.652344 L 481.621094 358.652344 L 481.558594 358.632812 L 481.542969 358.628906 L 481.488281 358.617188 L 481.476562 358.613281 L 481.410156 358.59375 L 481.398438 358.589844 L 481.34375 358.574219 L 481.328125 358.574219 L 481.261719 358.554688 L 481.199219 358.535156 L 481.183594 358.53125 L 481.050781 358.496094 L 481.039062 358.492188 L 480.902344 358.453125 L 480.898438 358.449219 L 480.832031 358.433594 L 480.828125 358.429688 L 480.6875 358.390625 L 480.683594 358.390625 L 480.542969 358.347656 L 480.539062 358.347656 C 477.390625 357.390625 474.421875 355.925781 471.746094 354.003906 L 471.742188 354 L 471.625 353.914062 L 471.621094 353.910156 L 471.5625 353.871094 L 471.5625 353.867188 L 471.503906 353.824219 L 471.492188 353.820312 L 471.441406 353.78125 L 471.433594 353.777344 L 471.378906 353.734375 L 471.371094 353.730469 L 471.324219 353.691406 L 471.308594 353.683594 L 471.253906 353.640625 L 467.308594 350.679688 L 467.265625 350.652344 L 465.207031 349.105469 L 465.191406 349.09375 L 464.015625 348.210938 L 464.007812 348.207031 L 463.402344 347.753906 L 463.363281 347.726562 L 463.074219 347.507812 L 463.054688 347.492188 L 462.902344 347.378906 L 462.898438 347.375 L 462.832031 347.324219 L 462.636719 347.175781 L 462.589844 347.140625 L 462.550781 347.113281 L 462.507812 347.082031 L 462.464844 347.046875 L 462.425781 347.023438 L 462.386719 346.992188 L 462.246094 346.886719 L 462.21875 346.867188 L 462.164062 346.824219 L 462.027344 346.71875 L 461.902344 346.628906 L 461.890625 346.617188 L 461.75 346.511719 L 461.695312 346.472656 L 461.464844 346.300781 L 461.332031 346.199219 L 461.285156 346.164062 L 461.203125 346.101562 L 461.195312 346.097656 L 461.097656 346.023438 L 460.980469 345.933594 L 460.964844 345.925781 L 460.925781 345.894531 L 460.855469 345.84375 L 460.839844 345.832031 L 460.6875 345.71875 L 460.636719 345.679688 L 460.328125 345.449219 C 435.894531 327.121094 378.945312 284.410156 378.945312 284.410156 C 373.78125 280.523438 367.480469 278.417969 361.003906 278.421875 Z M 361.003906 278.421875 " style=" stroke:none;fill-rule:nonzero;fill:rgb(100%,55.294118%,27.058824%);fill-opacity:1;" />
<path d="M 374.414062 209.871094 L 404.367188 209.871094 C 412.636719 209.871094 419.34375 216.574219 419.34375 224.84375 C 419.34375 233.117188 412.636719 239.820312 404.367188 239.820312 L 374.414062 239.820312 C 366.140625 239.820312 359.433594 233.117188 359.433594 224.84375 C 359.433594 216.574219 366.140625 209.871094 374.414062 209.871094 Z M 374.414062 209.871094 " style=" stroke:none;fill-rule:nonzero;fill:rgb(92.54902%,34.901961%,3.921569%);fill-opacity:1;" />
<path d="M 434.316406 239.820312 L 464.269531 239.820312 C 472.542969 239.820312 479.246094 246.527344 479.246094 254.796875 C 479.246094 263.070312 472.542969 269.773438 464.269531 269.773438 L 434.316406 269.773438 C 426.046875 269.773438 419.34375 263.070312 419.34375 254.796875 C 419.339844 246.527344 426.046875 239.820312 434.316406 239.820312 Z M 434.316406 239.820312 " style=" stroke:none;fill-rule:nonzero;fill:rgb(92.54902%,34.901961%,3.921569%);fill-opacity:1;" />
<path d="M 494.222656 209.871094 L 524.175781 209.871094 C 532.449219 209.871094 539.152344 216.574219 539.152344 224.84375 C 539.152344 233.117188 532.449219 239.820312 524.175781 239.820312 L 494.222656 239.820312 C 485.953125 239.820312 479.25 233.117188 479.25 224.84375 C 479.246094 216.574219 485.953125 209.871094 494.222656 209.871094 Z M 494.222656 209.871094 " style=" stroke:none;fill-rule:nonzero;fill:rgb(92.54902%,34.901961%,3.921569%);fill-opacity:1;" />
<path d="M 494.222656 269.773438 L 524.175781 269.773438 C 532.449219 269.773438 539.152344 276.480469 539.152344 284.75 C 539.152344 293.023438 532.449219 299.726562 524.175781 299.726562 L 494.222656 299.726562 C 485.953125 299.726562 479.25 293.023438 479.25 284.75 C 479.246094 276.480469 485.953125 269.773438 494.222656 269.773438 Z M 494.222656 269.773438 " style=" stroke:none;fill-rule:nonzero;fill:rgb(92.54902%,34.901961%,3.921569%);fill-opacity:1;" />
<path d="M 74.882812 479.445312 L 104.835938 479.445312 C 113.105469 479.445312 119.8125 486.152344 119.8125 494.421875 C 119.8125 502.695312 113.105469 509.398438 104.835938 509.398438 L 74.882812 509.398438 C 66.613281 509.398438 59.90625 502.695312 59.90625 494.421875 C 59.90625 486.152344 66.609375 479.445312 74.882812 479.445312 Z M 74.882812 479.445312 " style=" stroke:none;fill-rule:nonzero;fill:rgb(100%,68.627451%,49.019608%);fill-opacity:1;" />
<path d="M 164.742188 479.445312 L 194.695312 479.445312 C 202.964844 479.445312 209.671875 486.152344 209.671875 494.421875 C 209.671875 502.695312 202.964844 509.398438 194.695312 509.398438 L 164.742188 509.398438 C 156.472656 509.398438 149.765625 502.695312 149.765625 494.421875 C 149.765625 486.152344 156.46875 479.445312 164.742188 479.445312 Z M 164.742188 479.445312 " style=" stroke:none;fill-rule:nonzero;fill:rgb(100%,68.627451%,49.019608%);fill-opacity:1;" />
<path d="M 314.507812 539.351562 L 344.460938 539.351562 C 352.730469 539.351562 359.4375 546.058594 359.4375 554.328125 C 359.4375 562.597656 352.730469 569.304688 344.460938 569.304688 L 314.507812 569.304688 C 306.234375 569.304688 299.53125 562.597656 299.53125 554.328125 C 299.53125 546.058594 306.234375 539.351562 314.507812 539.351562 Z M 314.507812 539.351562 " style=" stroke:none;fill-rule:nonzero;fill:rgb(100%,68.627451%,49.019608%);fill-opacity:1;" />
<path d="M 44.929688 539.351562 L 74.882812 539.351562 C 83.152344 539.351562 89.859375 546.058594 89.859375 554.328125 C 89.859375 562.597656 83.152344 569.304688 74.882812 569.304688 L 44.929688 569.304688 C 36.660156 569.304688 29.953125 562.597656 29.953125 554.328125 C 29.953125 546.058594 36.65625 539.351562 44.929688 539.351562 Z M 44.929688 539.351562 " style=" stroke:none;fill-rule:nonzero;fill:rgb(100%,68.627451%,49.019608%);fill-opacity:1;" />
<path d="M 464.269531 479.445312 L 494.222656 479.445312 C 502.496094 479.445312 509.199219 486.152344 509.199219 494.421875 C 509.199219 502.695312 502.496094 509.398438 494.222656 509.398438 L 464.269531 509.398438 C 456 509.398438 449.296875 502.695312 449.296875 494.421875 C 449.292969 486.152344 456 479.445312 464.269531 479.445312 Z M 464.269531 479.445312 " style=" stroke:none;fill-rule:nonzero;fill:rgb(100%,68.627451%,49.019608%);fill-opacity:1;" />
<path d="M 554.128906 479.445312 L 584.082031 479.445312 C 592.355469 479.445312 599.058594 486.152344 599.058594 494.421875 C 599.058594 502.695312 592.355469 509.398438 584.082031 509.398438 L 554.128906 509.398438 C 545.859375 509.398438 539.152344 502.695312 539.152344 494.421875 C 539.152344 486.152344 545.859375 479.445312 554.128906 479.445312 Z M 554.128906 479.445312 " style=" stroke:none;fill-rule:nonzero;fill:rgb(100%,55.294118%,27.058824%);fill-opacity:1;" />
<path d="M 584.082031 539.351562 L 614.035156 539.351562 C 622.308594 539.351562 629.011719 546.058594 629.011719 554.328125 C 629.011719 562.597656 622.308594 569.304688 614.035156 569.304688 L 584.082031 569.304688 C 575.8125 569.304688 569.105469 562.597656 569.105469 554.328125 C 569.105469 546.058594 575.8125 539.351562 584.082031 539.351562 Z M 584.082031 539.351562 " style=" stroke:none;fill-rule:nonzero;fill:rgb(100%,55.294118%,27.058824%);fill-opacity:1;" />
<path d="M 464.269531 599.257812 L 494.222656 599.257812 C 502.496094 599.257812 509.199219 605.960938 509.199219 614.234375 C 509.199219 622.503906 502.496094 629.210938 494.222656 629.210938 L 464.269531 629.210938 C 456 629.210938 449.296875 622.503906 449.296875 614.234375 C 449.292969 605.964844 456 599.257812 464.269531 599.257812 Z M 464.269531 599.257812 " style=" stroke:none;fill-rule:nonzero;fill:rgb(100%,68.627451%,49.019608%);fill-opacity:1;" />
<path d="M 344.460938 479.445312 L 374.414062 479.445312 C 382.683594 479.445312 389.390625 486.152344 389.390625 494.421875 C 389.390625 502.695312 382.683594 509.398438 374.414062 509.398438 L 344.460938 509.398438 C 336.1875 509.398438 329.484375 502.695312 329.484375 494.421875 C 329.484375 486.152344 336.1875 479.445312 344.460938 479.445312 Z M 344.460938 479.445312 " style=" stroke:none;fill-rule:nonzero;fill:rgb(100%,68.627451%,49.019608%);fill-opacity:1;" />
<path d="M 464.269531 419.539062 L 494.222656 419.539062 C 502.496094 419.539062 509.199219 426.246094 509.199219 434.515625 C 509.199219 442.785156 502.496094 449.492188 494.222656 449.492188 L 464.269531 449.492188 C 456 449.492188 449.296875 442.785156 449.296875 434.515625 C 449.292969 426.246094 456 419.539062 464.269531 419.539062 Z M 464.269531 419.539062 " style=" stroke:none;fill-rule:nonzero;fill:rgb(100%,68.627451%,49.019608%);fill-opacity:1;" />
<path d="M 404.367188 329.679688 L 434.316406 329.679688 C 442.589844 329.679688 449.296875 336.386719 449.296875 344.65625 C 449.296875 352.929688 442.589844 359.636719 434.316406 359.636719 L 404.367188 359.636719 C 396.09375 359.636719 389.386719 352.929688 389.386719 344.65625 C 389.386719 336.386719 396.09375 329.679688 404.367188 329.679688 Z M 404.367188 329.679688 " style=" stroke:none;fill-rule:nonzero;fill:rgb(100%,61.176471%,36.862745%);fill-opacity:1;" />
<path d="M 584.082031 269.773438 L 614.035156 269.773438 C 622.308594 269.773438 629.011719 276.480469 629.011719 284.75 C 629.011719 293.023438 622.308594 299.726562 614.035156 299.726562 L 584.082031 299.726562 C 575.8125 299.726562 569.105469 293.023438 569.105469 284.75 C 569.105469 276.480469 575.8125 269.773438 584.082031 269.773438 Z M 584.082031 269.773438 " style=" stroke:none;fill-rule:nonzero;fill:rgb(92.54902%,34.901961%,3.921569%);fill-opacity:1;" />
<path d="M 349.453125 239.820312 L 335.214844 239.820312 C 326.945312 239.820312 320.238281 246.527344 320.238281 254.796875 C 320.238281 263.070312 326.941406 269.773438 335.214844 269.773438 L 349.453125 269.773438 C 355.933594 269.773438 362.238281 271.875 367.421875 275.765625 L 367.425781 275.765625 L 367.4375 275.777344 L 367.480469 275.808594 L 367.488281 275.8125 L 367.5625 275.871094 L 367.566406 275.871094 L 367.585938 275.886719 L 367.59375 275.894531 L 367.597656 275.894531 L 367.605469 275.902344 L 367.664062 275.945312 L 367.667969 275.949219 L 367.863281 276.09375 L 367.957031 276.164062 L 367.960938 276.167969 L 367.992188 276.191406 L 368.003906 276.203125 L 368.015625 276.207031 L 368.039062 276.226562 L 368.0625 276.242188 L 368.0625 276.246094 L 368.160156 276.316406 L 368.164062 276.320312 L 368.191406 276.34375 L 368.222656 276.363281 L 369.058594 276.992188 L 369.0625 276.992188 L 369.121094 277.039062 L 369.136719 277.050781 L 369.175781 277.082031 L 369.210938 277.105469 L 369.246094 277.132812 L 369.25 277.136719 L 369.300781 277.171875 L 369.367188 277.222656 L 369.402344 277.25 L 369.421875 277.265625 L 369.558594 277.367188 L 369.574219 277.375 L 369.632812 277.421875 L 369.695312 277.46875 L 369.707031 277.476562 L 369.769531 277.527344 L 369.835938 277.574219 L 369.847656 277.582031 L 370.125 277.789062 L 370.328125 277.941406 C 370.710938 278.230469 371.125 278.539062 371.574219 278.875 L 371.632812 278.921875 L 371.976562 279.179688 L 371.988281 279.1875 L 372.019531 279.210938 L 372.054688 279.234375 C 372.347656 279.457031 372.660156 279.691406 372.980469 279.929688 L 372.992188 279.9375 C 373.160156 280.066406 373.332031 280.195312 373.507812 280.328125 L 373.527344 280.339844 L 373.976562 280.675781 L 374.019531 280.710938 C 391.28125 293.65625 436.464844 327.542969 436.464844 327.542969 C 443.078125 332.507812 452.46875 331.164062 457.429688 324.546875 C 462.394531 317.929688 461.050781 308.542969 454.433594 303.582031 L 385.394531 251.800781 C 375.011719 244.050781 362.410156 239.847656 349.453125 239.820312 Z M 349.453125 239.820312 " style=" stroke:none;fill-rule:nonzero;fill:rgb(92.54902%,34.901961%,3.921569%);fill-opacity:1;" />
<path d="M 629.011719 329.679688 L 489.230469 329.679688 C 480.960938 329.679688 474.253906 336.386719 474.253906 344.65625 C 474.253906 352.929688 480.960938 359.636719 489.230469 359.636719 L 629.011719 359.636719 C 637.28125 359.636719 643.988281 352.929688 643.988281 344.65625 C 643.988281 336.386719 637.285156 329.679688 629.011719 329.679688 Z M 629.011719 329.679688 " style=" stroke:none;fill-rule:nonzero;fill:rgb(69.803922%,16.470588%,0%);fill-opacity:1;" />
<path d="M 117.878906 509.398438 L 151.699219 509.398438 C 167.171875 509.398438 179.714844 521.941406 179.714844 537.417969 L 179.714844 571.238281 C 179.714844 586.710938 167.171875 599.257812 151.699219 599.257812 L 117.878906 599.257812 C 102.402344 599.257812 89.859375 586.710938 89.859375 571.238281 L 89.859375 537.417969 C 89.859375 521.941406 102.402344 509.398438 117.878906 509.398438 Z M 117.878906 509.398438 " style=" stroke:none;fill-rule:nonzero;fill:rgb(37.647059%,18.431373%,100%);fill-opacity:1;" />
<path d="M 237.6875 509.398438 L 271.511719 509.398438 C 286.984375 509.398438 299.527344 521.941406 299.527344 537.417969 L 299.527344 571.238281 C 299.527344 586.710938 286.984375 599.257812 271.511719 599.257812 L 237.6875 599.257812 C 222.214844 599.257812 209.671875 586.710938 209.671875 571.238281 L 209.671875 537.417969 C 209.671875 521.941406 222.214844 509.398438 237.6875 509.398438 Z M 237.6875 509.398438 " style=" stroke:none;fill-rule:nonzero;fill:rgb(37.647059%,18.431373%,100%);fill-opacity:1;" />
<path d="M 404.367188 509.398438 C 429.179688 509.398438 449.296875 529.515625 449.296875 554.328125 L 449.296875 659.164062 L 359.4375 659.164062 L 359.4375 554.328125 C 359.433594 529.515625 379.550781 509.398438 404.367188 509.398438 Z M 404.367188 509.398438 " style=" stroke:none;fill-rule:nonzero;fill:rgb(37.647059%,18.431373%,100%);fill-opacity:1;" />
<path d="M 404.367188 509.398438 C 379.550781 509.398438 359.4375 529.515625 359.433594 554.328125 L 359.433594 642.496094 C 359.433594 650.765625 366.140625 657.472656 374.414062 657.472656 C 382.683594 657.472656 389.390625 650.765625 389.390625 642.496094 L 389.390625 554.328125 C 389.398438 546.0625 396.097656 539.359375 404.367188 539.351562 C 405.746094 539.347656 407.125 539.535156 408.453125 539.910156 C 416.417969 542.148438 424.6875 537.511719 426.929688 529.550781 C 429.160156 521.617188 424.566406 513.375 416.648438 511.097656 C 413.835938 510.300781 410.953125 509.78125 408.039062 509.546875 L 407.964844 509.539062 L 407.761719 509.523438 L 407.746094 509.523438 L 407.683594 509.519531 L 407.671875 509.515625 L 407.472656 509.503906 L 407.457031 509.5 L 407.394531 509.496094 L 407.386719 509.496094 L 407.273438 509.488281 L 407.246094 509.488281 L 407.191406 509.484375 L 407.164062 509.484375 L 406.984375 509.472656 L 406.953125 509.46875 L 406.902344 509.464844 L 406.871094 509.464844 L 406.789062 509.460938 L 406.746094 509.457031 L 406.703125 509.457031 L 406.660156 509.453125 L 406.613281 509.453125 L 406.570312 509.449219 L 406.507812 509.449219 L 406.453125 509.445312 L 406.414062 509.441406 L 406.367188 509.441406 L 406.324219 509.4375 L 406.265625 509.4375 L 406.210938 509.433594 L 406.164062 509.433594 L 406.121094 509.429688 L 406.070312 509.425781 L 406.035156 509.425781 L 405.957031 509.421875 L 405.867188 509.421875 L 405.832031 509.417969 L 405.742188 509.417969 L 405.660156 509.414062 L 405.628906 509.414062 L 405.570312 509.410156 L 405.453125 509.410156 L 405.367188 509.40625 L 405.273438 509.40625 L 405.246094 509.402344 L 404.953125 509.402344 L 404.867188 509.398438 Z M 404.367188 509.398438 " style=" stroke:none;fill-rule:nonzero;fill:rgb(20.392157%,7.058824%,83.137255%);fill-opacity:1;" />
<path d="M 374.414062 389.585938 C 382.683594 389.585938 389.390625 396.292969 389.390625 404.5625 L 389.390625 464.46875 C 389.390625 472.742188 382.683594 479.445312 374.414062 479.445312 C 366.140625 479.445312 359.433594 472.742188 359.433594 464.46875 L 359.433594 404.5625 C 359.433594 396.292969 366.140625 389.585938 374.414062 389.585938 Z M 374.414062 389.585938 " style=" stroke:none;fill-rule:nonzero;fill:rgb(37.647059%,18.431373%,100%);fill-opacity:1;" />
<path d="M 104.835938 509.398438 C 113.105469 509.398438 119.8125 516.105469 119.8125 524.375 L 119.8125 584.28125 C 119.8125 592.550781 113.109375 599.257812 104.835938 599.257812 C 96.566406 599.257812 89.859375 592.554688 89.859375 584.28125 L 89.859375 524.375 C 89.859375 516.105469 96.5625 509.398438 104.835938 509.398438 Z M 104.835938 509.398438 " style=" stroke:none;fill-rule:nonzero;fill:rgb(20.392157%,7.058824%,83.137255%);fill-opacity:1;" />
<path d="M 224.648438 509.398438 C 232.917969 509.398438 239.625 516.105469 239.625 524.375 L 239.625 584.28125 C 239.625 592.550781 232.917969 599.257812 224.648438 599.257812 C 216.378906 599.257812 209.671875 592.554688 209.671875 584.28125 L 209.671875 524.375 C 209.671875 516.105469 216.375 509.398438 224.648438 509.398438 Z M 224.648438 509.398438 " style=" stroke:none;fill-rule:nonzero;fill:rgb(20.392157%,7.058824%,83.137255%);fill-opacity:1;" />
<path d="M 434.316406 389.585938 C 442.589844 389.585938 449.296875 396.292969 449.296875 404.5625 L 449.296875 464.46875 C 449.296875 472.742188 442.589844 479.445312 434.316406 479.445312 C 426.046875 479.445312 419.34375 472.742188 419.34375 464.46875 L 419.34375 404.5625 C 419.339844 396.292969 426.046875 389.585938 434.316406 389.585938 Z M 434.316406 389.585938 " style=" stroke:none;fill-rule:nonzero;fill:rgb(37.647059%,18.431373%,100%);fill-opacity:1;" />
<path d="M 554.128906 389.585938 C 562.402344 389.585938 569.105469 396.292969 569.105469 404.5625 L 569.105469 464.46875 C 569.105469 472.742188 562.402344 479.445312 554.132812 479.445312 C 545.859375 479.445312 539.15625 472.742188 539.15625 464.46875 L 539.15625 404.5625 C 539.152344 396.292969 545.859375 389.585938 554.128906 389.585938 Z M 554.128906 389.585938 " style=" stroke:none;fill-rule:nonzero;fill:rgb(28.235294%,5.882353%,92.941176%);fill-opacity:1;" />
<path d="M 614.035156 389.585938 C 622.308594 389.585938 629.011719 396.292969 629.011719 404.5625 L 629.011719 464.46875 C 629.011719 472.742188 622.308594 479.445312 614.035156 479.445312 C 605.765625 479.445312 599.0625 472.742188 599.0625 464.46875 L 599.0625 404.5625 C 599.058594 396.292969 605.765625 389.585938 614.035156 389.585938 Z M 614.035156 389.585938 " style=" stroke:none;fill-rule:nonzero;fill:rgb(28.235294%,5.882353%,92.941176%);fill-opacity:1;" />
<path d="M 119.8125 209.871094 L 209.671875 209.871094 C 226.214844 209.871094 239.625 223.277344 239.625 239.820312 C 239.625 256.363281 226.214844 269.773438 209.671875 269.773438 L 119.8125 269.773438 C 103.269531 269.773438 89.859375 256.363281 89.859375 239.820312 C 89.859375 223.28125 103.269531 209.871094 119.8125 209.871094 Z M 119.8125 209.871094 " style=" stroke:none;fill-rule:nonzero;fill:rgb(92.54902%,34.901961%,3.921569%);fill-opacity:1;" />
<path d="M 119.8125 149.964844 C 119.8125 133.421875 133.222656 120.011719 149.765625 120.011719 L 179.71875 120.011719 C 196.261719 120.011719 209.671875 106.601562 209.671875 90.058594 C 209.671875 73.515625 223.082031 60.105469 239.625 60.105469 L 389.386719 60.105469 C 405.929688 60.105469 419.339844 73.515625 419.339844 90.058594 C 419.339844 106.601562 405.929688 120.011719 389.386719 120.011719 C 372.84375 120.011719 359.433594 133.421875 359.433594 149.964844 C 359.433594 166.507812 346.027344 179.917969 329.484375 179.917969 L 149.765625 179.917969 C 133.222656 179.917969 119.8125 166.507812 119.8125 149.964844 Z M 119.8125 149.964844 " style=" stroke:none;fill-rule:nonzero;fill:rgb(0%,61.176471%,7.45098%);fill-opacity:1;" />
<path d="M 509.199219 0.199219 L 539.152344 0.199219 C 555.695312 0.199219 569.105469 13.609375 569.105469 30.152344 C 569.105469 46.695312 555.695312 60.105469 539.152344 60.105469 L 509.199219 60.105469 C 492.65625 60.105469 479.246094 46.695312 479.246094 30.152344 C 479.246094 13.609375 492.660156 0.199219 509.199219 0.199219 Z M 509.199219 0.199219 " style=" stroke:none;fill-rule:nonzero;fill:rgb(27.45098%,82.352941%,27.843137%);fill-opacity:1;" />
<path d="M 419.339844 149.964844 L 479.246094 149.964844 C 495.789062 149.964844 509.199219 163.375 509.199219 179.917969 C 509.199219 196.460938 495.789062 209.871094 479.246094 209.871094 L 419.339844 209.871094 C 402.796875 209.871094 389.386719 196.460938 389.386719 179.917969 C 389.386719 163.375 402.800781 149.964844 419.339844 149.964844 Z M 419.339844 149.964844 " style=" stroke:none;fill-rule:nonzero;fill:rgb(27.45098%,82.352941%,27.843137%);fill-opacity:1;" />
<path d="M 524.175781 90.058594 L 584.082031 90.058594 C 592.355469 90.058594 599.058594 96.761719 599.058594 105.035156 C 599.058594 113.304688 592.355469 120.007812 584.082031 120.007812 L 524.175781 120.007812 C 515.90625 120.007812 509.199219 113.304688 509.199219 105.035156 C 509.199219 96.761719 515.90625 90.058594 524.175781 90.058594 Z M 524.175781 90.058594 " style=" stroke:none;fill-rule:nonzero;fill:rgb(5.098039%,62.352941%,0%);fill-opacity:1;" />
<path d="M 29.953125 60.105469 L 59.90625 60.105469 C 76.449219 60.105469 89.859375 73.515625 89.859375 90.058594 C 89.859375 106.601562 76.449219 120.011719 59.90625 120.011719 L 29.953125 120.011719 C 13.410156 120.011719 0 106.601562 0 90.058594 C 0 73.515625 13.410156 60.105469 29.953125 60.105469 Z M 29.953125 60.105469 " style=" stroke:none;fill-rule:nonzero;fill:rgb(27.45098%,82.352941%,27.843137%);fill-opacity:1;" />
<path d="M 329.484375 419.539062 L 254.601562 419.539062 C 246.328125 419.539062 239.625 412.835938 239.625 404.5625 C 239.625 396.292969 246.328125 389.585938 254.601562 389.585938 L 329.484375 389.585938 Z M 329.484375 419.539062 " style=" stroke:none;fill-rule:nonzero;fill:rgb(82.745098%,25.098039%,0%);fill-opacity:1;" />
<path d="M 314.507812 389.585938 C 322.777344 389.585938 329.484375 396.292969 329.484375 404.5625 L 329.484375 434.515625 C 329.484375 442.789062 322.777344 449.492188 314.507812 449.492188 C 306.238281 449.492188 299.53125 442.789062 299.53125 434.515625 L 299.53125 404.5625 C 299.53125 396.292969 306.234375 389.585938 314.507812 389.585938 Z M 314.507812 389.585938 " style=" stroke:none;fill-rule:nonzero;fill:rgb(82.745098%,25.098039%,0%);fill-opacity:1;" />
<path d="M 321.203125 421.121094 L 261.296875 391.167969 C 261.152344 391.09375 260.992188 391.113281 260.84375 391.042969 C 259.914062 390.691406 258.953125 390.429688 257.972656 390.269531 C 257.023438 389.976562 256.050781 389.78125 255.0625 389.679688 C 254.898438 389.675781 254.765625 389.585938 254.601562 389.585938 L 164.742188 389.585938 C 156.46875 389.585938 149.765625 396.292969 149.765625 404.5625 C 149.765625 412.835938 156.46875 419.539062 164.742188 419.539062 L 251.0625 419.539062 L 307.808594 447.914062 C 315.207031 451.613281 324.203125 448.613281 327.902344 441.214844 C 331.601562 433.816406 328.605469 424.820312 321.203125 421.121094 Z M 321.203125 421.121094 " style=" stroke:none;fill-rule:nonzero;fill:rgb(100%,41.176471%,4.313725%);fill-opacity:1;" />
<path d="M 164.742188 389.585938 L 194.695312 389.585938 C 202.964844 389.585938 209.671875 396.292969 209.671875 404.5625 C 209.671875 412.835938 202.964844 419.539062 194.695312 419.539062 L 164.742188 419.539062 C 156.472656 419.539062 149.765625 412.835938 149.765625 404.5625 C 149.765625 396.292969 156.46875 389.585938 164.742188 389.585938 Z M 164.742188 389.585938 " style=" stroke:none;fill-rule:nonzero;fill:rgb(92.54902%,34.901961%,3.921569%);fill-opacity:1;" />
<path d="M 569.105469 404.5625 C 569.105469 412.835938 562.402344 419.539062 554.128906 419.539062 C 545.859375 419.539062 539.152344 412.835938 539.152344 404.5625 C 539.152344 396.292969 545.859375 389.589844 554.128906 389.589844 C 562.402344 389.589844 569.105469 396.292969 569.105469 404.5625 Z M 569.105469 404.5625 " style=" stroke:none;fill-rule:nonzero;fill:rgb(7.45098%,0%,62.745098%);fill-opacity:1;" />
<path d="M 389.386719 404.5625 C 389.386719 412.835938 382.683594 419.539062 374.414062 419.539062 C 366.140625 419.539062 359.4375 412.835938 359.4375 404.5625 C 359.4375 396.292969 366.140625 389.589844 374.414062 389.589844 C 382.683594 389.589844 389.386719 396.292969 389.386719 404.5625 Z M 389.386719 404.5625 " style=" stroke:none;fill-rule:nonzero;fill:rgb(20.392157%,7.058824%,83.137255%);fill-opacity:1;" />
<path d="M 449.292969 404.5625 C 449.292969 412.835938 442.589844 419.539062 434.316406 419.539062 C 426.046875 419.539062 419.34375 412.835938 419.34375 404.5625 C 419.34375 396.292969 426.046875 389.589844 434.316406 389.589844 C 442.589844 389.589844 449.292969 396.292969 449.292969 404.5625 Z M 449.292969 404.5625 " style=" stroke:none;fill-rule:nonzero;fill:rgb(20.392157%,7.058824%,83.137255%);fill-opacity:1;" />
<path d="M 629.011719 404.5625 C 629.011719 412.835938 622.308594 419.539062 614.035156 419.539062 C 605.765625 419.539062 599.058594 412.835938 599.058594 404.5625 C 599.058594 396.292969 605.765625 389.589844 614.035156 389.589844 C 622.308594 389.589844 629.011719 396.292969 629.011719 404.5625 Z M 629.011719 404.5625 " style=" stroke:none;fill-rule:nonzero;fill:rgb(7.45098%,0%,62.745098%);fill-opacity:1;" />
<path d="M 539.152344 599.257812 L 569.105469 599.257812 C 585.648438 599.257812 599.058594 612.667969 599.058594 629.210938 C 599.058594 645.753906 585.648438 659.164062 569.105469 659.164062 L 539.152344 659.164062 C 522.609375 659.164062 509.199219 645.753906 509.199219 629.210938 C 509.199219 612.667969 522.609375 599.257812 539.152344 599.257812 Z M 539.152344 599.257812 " style=" stroke:none;fill-rule:nonzero;fill:rgb(100%,41.176471%,4.313725%);fill-opacity:1;" />
<path d="M 171.441406 421.121094 L 111.535156 391.167969 C 111.386719 391.09375 111.230469 391.113281 111.082031 391.042969 C 110.15625 390.691406 109.195312 390.433594 108.222656 390.269531 C 107.269531 389.976562 106.292969 389.78125 105.300781 389.679688 C 105.136719 389.675781 105 389.585938 104.835938 389.585938 L 14.976562 389.585938 C 6.703125 389.585938 0 396.292969 0 404.5625 C 0 412.835938 6.703125 419.539062 14.976562 419.539062 L 101.296875 419.539062 L 158.042969 447.914062 C 165.441406 451.613281 174.441406 448.617188 178.140625 441.214844 C 181.835938 433.816406 178.839844 424.820312 171.441406 421.121094 Z M 171.441406 421.121094 " style=" stroke:none;fill-rule:nonzero;fill:rgb(100%,50.588235%,19.607843%);fill-opacity:1;" />
<path d="M 251.0625 419.539062 L 168.28125 419.539062 L 171.441406 421.117188 C 178.839844 424.820312 181.835938 433.816406 178.140625 441.214844 C 174.4375 448.613281 165.441406 451.613281 158.042969 447.914062 L 101.296875 419.539062 L 44.820312 419.539062 C 36.546875 419.539062 29.84375 426.246094 29.84375 434.515625 C 29.84375 442.789062 36.546875 449.492188 44.820312 449.492188 L 94.226562 449.492188 L 144.648438 474.703125 C 150.886719 477.808594 157.757812 479.429688 164.726562 479.445312 C 181.753906 479.5 197.332031 469.882812 204.914062 454.640625 C 205.75 452.972656 206.480469 451.253906 207.101562 449.492188 L 243.988281 449.492188 L 294.410156 474.703125 C 300.492188 477.730469 307.179688 479.347656 313.96875 479.441406 C 314.027344 479.445312 314.089844 479.445312 314.148438 479.445312 C 322.417969 479.441406 329.125 472.738281 329.121094 464.464844 C 329.121094 456.261719 322.519531 449.585938 314.316406 449.492188 C 313.917969 449.488281 313.519531 449.464844 313.117188 449.429688 L 313.113281 449.429688 L 313.066406 449.425781 L 313.058594 449.421875 L 313.011719 449.417969 L 313.003906 449.417969 L 312.960938 449.414062 L 312.949219 449.414062 L 312.910156 449.410156 L 312.894531 449.40625 L 312.859375 449.402344 L 312.839844 449.402344 L 312.808594 449.398438 L 312.785156 449.394531 L 312.753906 449.390625 L 312.734375 449.386719 L 312.703125 449.386719 L 312.679688 449.382812 L 312.652344 449.378906 L 312.628906 449.375 L 312.574219 449.367188 L 312.550781 449.363281 L 312.519531 449.359375 L 312.5 449.359375 L 312.46875 449.355469 L 312.449219 449.351562 L 312.414062 449.347656 L 312.398438 449.34375 L 312.363281 449.339844 L 312.347656 449.335938 L 312.308594 449.332031 L 312.296875 449.328125 L 312.257812 449.324219 L 312.246094 449.320312 L 312.203125 449.316406 L 312.195312 449.3125 L 312.152344 449.308594 L 312.148438 449.304688 L 312.101562 449.300781 L 312.097656 449.300781 L 312.050781 449.289062 L 312.046875 449.289062 C 311.808594 449.25 311.570312 449.203125 311.332031 449.152344 L 311.328125 449.152344 L 311.28125 449.144531 L 311.277344 449.140625 L 311.234375 449.132812 L 311.222656 449.128906 L 311.179688 449.121094 L 311.171875 449.117188 L 311.132812 449.109375 L 311.121094 449.105469 L 311.082031 449.097656 L 311.066406 449.09375 L 311.03125 449.085938 L 311.015625 449.082031 L 310.980469 449.074219 L 310.964844 449.070312 L 310.929688 449.058594 L 310.914062 449.054688 L 310.878906 449.046875 L 310.859375 449.042969 L 310.828125 449.035156 L 310.808594 449.027344 L 310.777344 449.019531 L 310.757812 449.015625 L 310.726562 449.007812 L 310.703125 449.003906 L 310.675781 448.996094 L 310.652344 448.988281 L 310.621094 448.980469 L 310.597656 448.976562 L 310.570312 448.96875 L 310.546875 448.960938 L 310.519531 448.953125 L 310.496094 448.945312 L 310.441406 448.929688 L 310.417969 448.925781 L 310.390625 448.917969 L 310.371094 448.910156 L 310.34375 448.902344 L 310.320312 448.894531 L 310.289062 448.886719 L 310.269531 448.882812 L 310.234375 448.871094 L 310.21875 448.867188 L 310.179688 448.855469 L 310.164062 448.851562 L 310.125 448.839844 L 310.113281 448.835938 L 310.070312 448.820312 L 310.0625 448.820312 L 310.011719 448.804688 C 309.71875 448.710938 309.425781 448.609375 309.132812 448.496094 L 309.03125 448.457031 L 309.027344 448.457031 L 308.980469 448.4375 L 308.976562 448.4375 L 308.929688 448.417969 L 308.925781 448.414062 L 308.878906 448.394531 L 308.875 448.394531 L 308.828125 448.375 L 308.824219 448.375 L 308.777344 448.351562 L 308.773438 448.351562 L 308.722656 448.332031 L 308.71875 448.332031 L 308.671875 448.3125 L 308.667969 448.308594 L 308.621094 448.289062 L 308.617188 448.289062 L 308.570312 448.269531 L 308.566406 448.265625 L 308.519531 448.246094 L 308.515625 448.246094 L 308.46875 448.222656 L 308.417969 448.203125 L 308.417969 448.199219 L 308.367188 448.179688 L 308.363281 448.175781 L 308.316406 448.15625 L 308.3125 448.15625 L 308.265625 448.132812 L 308.261719 448.132812 L 308.214844 448.109375 L 308.210938 448.109375 L 308.164062 448.085938 L 308.011719 448.015625 L 308.011719 448.011719 L 307.964844 447.988281 L 307.960938 447.988281 L 307.914062 447.964844 L 307.910156 447.964844 L 307.871094 447.945312 L 307.859375 447.941406 L 307.808594 447.914062 L 301.792969 444.90625 L 301.789062 444.90625 L 301.082031 444.550781 L 300.910156 444.464844 L 300.90625 444.464844 L 300.859375 444.4375 L 300.847656 444.433594 L 297.140625 442.578125 L 296.882812 442.449219 L 296.863281 442.441406 L 296.617188 442.316406 L 296.589844 442.304688 L 294.722656 441.371094 L 294.71875 441.371094 L 294.640625 441.332031 L 294.589844 441.304688 L 294.546875 441.285156 L 294.511719 441.265625 L 294.503906 441.261719 L 294.445312 441.234375 L 294.421875 441.21875 L 294.382812 441.203125 L 294.355469 441.1875 L 294.230469 441.125 L 294.210938 441.117188 L 292.941406 440.480469 L 292.84375 440.433594 L 289.625 438.820312 L 289.621094 438.820312 L 284.734375 436.375 L 284.722656 436.371094 L 284.664062 436.34375 L 284.636719 436.328125 L 284.285156 436.152344 L 284.171875 436.097656 L 284.070312 436.046875 L 283.417969 435.71875 L 283.414062 435.71875 L 278.773438 433.398438 L 278.722656 433.371094 L 277.445312 432.734375 L 277.394531 432.707031 L 276.777344 432.398438 L 276.730469 432.378906 L 274.480469 431.25 L 274.464844 431.242188 L 270.289062 429.15625 L 270.261719 429.140625 L 269.019531 428.519531 L 268.976562 428.5 L 263.816406 425.921875 L 263.777344 425.898438 L 263.757812 425.890625 L 263.714844 425.867188 L 263.664062 425.84375 L 263.65625 425.839844 L 256.355469 422.1875 L 256.347656 422.183594 L 256.3125 422.167969 L 256.296875 422.160156 L 255.910156 421.964844 L 255.902344 421.960938 L 255.539062 421.78125 L 255.511719 421.765625 L 255.472656 421.746094 L 255.46875 421.746094 L 255.433594 421.726562 L 255.421875 421.71875 L 255.382812 421.703125 L 255.371094 421.695312 L 255.152344 421.585938 L 255.140625 421.582031 L 253.726562 420.875 L 253.707031 420.863281 L 253.46875 420.746094 L 253.464844 420.742188 L 251.703125 419.863281 Z M 251.0625 419.539062 " style=" stroke:none;fill-rule:nonzero;fill:rgb(100%,55.294118%,27.058824%);fill-opacity:1;" />
<path d="M 89.859375 599.257812 L 269.578125 599.257812 C 286.121094 599.257812 299.53125 612.667969 299.53125 629.210938 C 299.53125 645.753906 286.121094 659.164062 269.578125 659.164062 L 89.859375 659.164062 C 73.316406 659.164062 59.90625 645.753906 59.90625 629.210938 C 59.90625 612.667969 73.316406 599.257812 89.859375 599.257812 Z M 89.859375 599.257812 " style=" stroke:none;fill-rule:nonzero;fill:rgb(100%,55.294118%,27.058824%);fill-opacity:1;" />
<path d="M 239.625 239.820312 C 239.625 256.363281 226.214844 269.773438 209.671875 269.773438 C 193.128906 269.773438 179.71875 256.363281 179.71875 239.820312 C 179.71875 223.28125 193.128906 209.871094 209.671875 209.871094 C 226.214844 209.871094 239.625 223.28125 239.625 239.820312 Z M 239.625 239.820312 " style=" stroke:none;fill-rule:nonzero;fill:rgb(82.745098%,25.098039%,0%);fill-opacity:1;" />
<path d="M 164.742188 359.632812 L 224.648438 359.632812 C 232.917969 359.632812 239.625 366.339844 239.625 374.609375 C 239.625 382.882812 232.917969 389.585938 224.648438 389.585938 L 164.742188 389.585938 C 156.472656 389.585938 149.765625 382.882812 149.765625 374.609375 C 149.765625 366.339844 156.46875 359.632812 164.742188 359.632812 Z M 164.742188 359.632812 " style=" stroke:none;fill-rule:nonzero;fill:rgb(81.960784%,76.078431%,100%);fill-opacity:1;" />
<path d="M 254.601562 599.257812 L 284.554688 599.257812 C 292.824219 599.257812 299.53125 605.960938 299.53125 614.234375 C 299.53125 622.503906 292.824219 629.210938 284.554688 629.210938 L 254.601562 629.210938 C 246.328125 629.210938 239.625 622.503906 239.625 614.234375 C 239.625 605.964844 246.328125 599.257812 254.601562 599.257812 Z M 254.601562 599.257812 " style=" stroke:none;fill-rule:nonzero;fill:rgb(100%,61.176471%,36.862745%);fill-opacity:1;" />
<path d="M 104.835938 599.257812 L 134.789062 599.257812 C 143.058594 599.257812 149.765625 605.960938 149.765625 614.234375 C 149.765625 622.503906 143.058594 629.210938 134.789062 629.210938 L 104.835938 629.210938 C 96.566406 629.210938 89.859375 622.503906 89.859375 614.234375 C 89.859375 605.964844 96.5625 599.257812 104.835938 599.257812 Z M 104.835938 599.257812 " style=" stroke:none;fill-rule:nonzero;fill:rgb(100%,61.176471%,36.862745%);fill-opacity:1;" />
<path d="M 554.128906 599.257812 L 584.082031 599.257812 C 592.355469 599.257812 599.058594 605.960938 599.058594 614.234375 C 599.058594 622.503906 592.355469 629.210938 584.082031 629.210938 L 554.128906 629.210938 C 545.859375 629.210938 539.152344 622.503906 539.152344 614.234375 C 539.152344 605.964844 545.859375 599.257812 554.128906 599.257812 Z M 554.128906 599.257812 " style=" stroke:none;fill-rule:nonzero;fill:rgb(100%,47.843137%,15.294118%);fill-opacity:1;" />
<path d="M 314.507812 90.058594 L 344.460938 90.058594 C 352.730469 90.058594 359.4375 96.761719 359.4375 105.035156 C 359.4375 113.304688 352.730469 120.007812 344.460938 120.007812 L 314.507812 120.007812 C 306.234375 120.007812 299.53125 113.304688 299.53125 105.035156 C 299.53125 96.761719 306.234375 90.058594 314.507812 90.058594 Z M 314.507812 90.058594 " style=" stroke:none;fill-rule:nonzero;fill:rgb(18.823529%,74.901961%,0%);fill-opacity:1;" />
<path d="M 404.367188 149.964844 L 434.316406 149.964844 C 442.589844 149.964844 449.296875 156.667969 449.296875 164.9375 C 449.296875 173.210938 442.589844 179.917969 434.316406 179.917969 L 404.367188 179.917969 C 396.09375 179.917969 389.386719 173.210938 389.386719 164.9375 C 389.386719 156.667969 396.09375 149.964844 404.367188 149.964844 Z M 404.367188 149.964844 " style=" stroke:none;fill-rule:nonzero;fill:rgb(64.313725%,91.372549%,67.058824%);fill-opacity:1;" />
<path d="M 494.222656 0.199219 L 524.175781 0.199219 C 532.449219 0.199219 539.152344 6.902344 539.152344 15.175781 C 539.152344 23.445312 532.449219 30.152344 524.175781 30.152344 L 494.222656 30.152344 C 485.953125 30.152344 479.25 23.445312 479.25 15.175781 C 479.246094 6.902344 485.953125 0.199219 494.222656 0.199219 Z M 494.222656 0.199219 " style=" stroke:none;fill-rule:nonzero;fill:rgb(64.313725%,91.372549%,67.058824%);fill-opacity:1;" />
<path d="M 404.367188 30.152344 L 434.316406 30.152344 C 442.589844 30.152344 449.296875 36.855469 449.296875 45.128906 C 449.296875 53.398438 442.589844 60.101562 434.316406 60.101562 L 404.367188 60.101562 C 396.09375 60.101562 389.386719 53.398438 389.386719 45.128906 C 389.386719 36.855469 396.09375 30.152344 404.367188 30.152344 Z M 404.367188 30.152344 " style=" stroke:none;fill-rule:nonzero;fill:rgb(27.45098%,82.352941%,27.843137%);fill-opacity:1;" />
<path d="M 164.742188 149.964844 L 314.507812 149.964844 C 322.777344 149.964844 329.484375 156.667969 329.484375 164.9375 C 329.484375 173.210938 322.777344 179.917969 314.507812 179.917969 L 164.742188 179.917969 C 156.472656 179.917969 149.765625 173.210938 149.765625 164.9375 C 149.765625 156.667969 156.46875 149.964844 164.742188 149.964844 Z M 164.742188 149.964844 " style=" stroke:none;fill-rule:nonzero;fill:rgb(5.490196%,53.72549%,0%);fill-opacity:1;" />
<path d="M 389.390625 105.035156 C 389.390625 113.304688 382.683594 120.011719 374.414062 120.011719 C 366.140625 120.011719 359.433594 113.304688 359.433594 105.035156 C 359.433594 96.761719 366.140625 90.058594 374.414062 90.058594 C 382.683594 90.058594 389.390625 96.761719 389.390625 105.035156 Z M 389.390625 105.035156 " style=" stroke:none;fill-rule:nonzero;fill:rgb(5.490196%,53.72549%,0%);fill-opacity:1;" />
<path d="M 269.578125 105.035156 C 269.578125 113.304688 262.871094 120.011719 254.601562 120.011719 C 246.328125 120.011719 239.625 113.304688 239.625 105.035156 C 239.625 96.761719 246.328125 90.058594 254.601562 90.058594 C 262.871094 90.058594 269.578125 96.761719 269.578125 105.035156 Z M 269.578125 105.035156 " style=" stroke:none;fill-rule:nonzero;fill:rgb(18.823529%,74.901961%,0%);fill-opacity:1;" />
<path d="M 89.859375 75.082031 C 89.859375 83.351562 83.15625 90.058594 74.882812 90.058594 C 66.613281 90.058594 59.90625 83.351562 59.90625 75.082031 C 59.90625 66.808594 66.613281 60.105469 74.882812 60.105469 C 83.15625 60.105469 89.859375 66.808594 89.859375 75.082031 Z M 89.859375 75.082031 " style=" stroke:none;fill-rule:nonzero;fill:rgb(64.313725%,91.372549%,67.058824%);fill-opacity:1;" />
</g>
</svg>