<svg id="Capa_1" enable-background="new 0 0 512 512" height="512" viewBox="0 0 512 512" width="512" xmlns="http://www.w3.org/2000/svg"><g><g><g><g><path d="m285.711 114.287h18.458v111.968h-18.458z" fill="#c3edb0"/></g><g><path d="m300.711 114.287h15v111.968h-15z" fill="#73cbb1"/></g><g><g><path d="m182.896 0v34.743c0 45.879 37.192 83.071 83.071 83.071h34.743v-34.743c.001-45.879-37.191-83.071-83.07-83.071z" fill="#73cbb1"/></g></g><g><g><path d="m418.526 31.215v34.743c0 45.879-37.192 83.071-83.071 83.071h-34.743v-34.743c0-45.879 37.192-83.071 83.071-83.071z" fill="#539499"/></g></g></g></g><path d="m300.711 192.901c-74.98 0-135.763 60.783-135.763 135.763s60.783 135.763 135.763 135.763l21.76-135.763z" fill="#c18578"/><path d="m300.711 192.901v271.526c74.98 0 135.763-60.783 135.763-135.763s-60.783-135.763-135.763-135.763z" fill="#b26e5a"/><g><g><path d="m224.487 361.425h96.879c15.963 0 28.949-12.986 28.949-28.949v-42.355h-178.913l-36.084 24.616h-72.828v76.688l161.998 11.15v-41.15z" fill="#f6dccd"/><path d="m499.128 302.935-32.878-32.878-97.644 97.644c-10.759 14.391-27.929 23.724-47.239 23.724l90.879 11.15 61.103-11.15 26.094-26.655c16.865-17.213 16.724-44.795-.315-61.835z" fill="#f6dccd"/><path d="m224.487 391.425h-161.997v1.108 36.839 56.09h72.828l37.617 26.149h182.758l117.656-120.186h-151.982z" fill="#f1cbbc"/></g><path d="m0 290.121h94.988v221.879h-94.988z" fill="#73cbb1"/><path d="m0 391.425h94.988v120.575h-94.988z" fill="#539499"/></g></g></svg>